<mxfile host="Electron" modified="2024-05-24T20:34:47.986Z" agent="Mozilla/5.0 (Windows NT 10.0; Win64; x64) AppleWebKit/537.36 (KHTML, like Gecko) draw.io/24.2.5 Chrome/120.0.6099.109 Electron/28.1.0 Safari/537.36" etag="yfFOhI_xfHuAWYCOZ4oZ" version="24.2.5" type="device">
  <diagram name="Page-1" id="0783ab3e-0a74-02c8-0abd-f7b4e66b4bec">
    <mxGraphModel dx="1235" dy="1840" grid="0" gridSize="10" guides="1" tooltips="1" connect="1" arrows="1" fold="1" page="1" pageScale="1" pageWidth="850" pageHeight="1100" background="none" math="0" shadow="0">
      <root>
        <mxCell id="0" />
        <mxCell id="1" parent="0" />
        <mxCell id="1c1d494c118603dd-34" style="edgeStyle=none;rounded=0;html=1;labelBackgroundColor=none;startArrow=none;startFill=0;startSize=5;endArrow=classicThin;endFill=1;endSize=5;jettySize=auto;orthogonalLoop=1;strokeWidth=1;fontFamily=Verdana;fontSize=12;entryX=0;entryY=0;entryDx=0;entryDy=0;" parent="1" source="1c1d494c118603dd-6" target="1c1d494c118603dd-12" edge="1">
          <mxGeometry relative="1" as="geometry">
            <mxPoint x="161.25" y="-830" as="targetPoint" />
          </mxGeometry>
        </mxCell>
        <mxCell id="1c1d494c118603dd-6" value="News" style="rounded=1;whiteSpace=wrap;html=1;shadow=0;comic=0;labelBackgroundColor=none;strokeWidth=1;fontFamily=Verdana;fontSize=12;align=center;arcSize=50;" parent="1" vertex="1">
          <mxGeometry x="85" y="-890" width="100" height="30" as="geometry" />
        </mxCell>
        <mxCell id="1c1d494c118603dd-7" value="Faculties" style="rounded=1;whiteSpace=wrap;html=1;shadow=0;comic=0;labelBackgroundColor=none;strokeWidth=1;fontFamily=Verdana;fontSize=12;align=center;arcSize=50;" parent="1" vertex="1">
          <mxGeometry x="205" y="-890" width="100" height="30" as="geometry" />
        </mxCell>
        <mxCell id="1c1d494c118603dd-46" style="edgeStyle=none;rounded=0;html=1;labelBackgroundColor=none;startArrow=none;startFill=0;startSize=5;endArrow=oval;endFill=0;endSize=5;jettySize=auto;orthogonalLoop=1;strokeWidth=1;fontFamily=Verdana;fontSize=12;dashed=1;" parent="1" source="1c1d494c118603dd-21" target="1c1d494c118603dd-6" edge="1">
          <mxGeometry relative="1" as="geometry" />
        </mxCell>
        <mxCell id="1c1d494c118603dd-21" value="News" style="shape=note;whiteSpace=wrap;html=1;rounded=0;shadow=0;comic=0;labelBackgroundColor=none;strokeWidth=1;fontFamily=Verdana;fontSize=12;align=center;size=20;" parent="1" vertex="1">
          <mxGeometry x="35" y="-841" width="85" height="42" as="geometry" />
        </mxCell>
        <mxCell id="6Oeuvol_LZ1ovLDAb6fE-12" style="edgeStyle=orthogonalEdgeStyle;rounded=0;orthogonalLoop=1;jettySize=auto;html=1;exitX=0;exitY=0.75;exitDx=0;exitDy=0;entryX=0.5;entryY=0;entryDx=0;entryDy=0;" edge="1" parent="1" source="60571a20871a0731-3" target="1c1d494c118603dd-7">
          <mxGeometry relative="1" as="geometry">
            <Array as="points">
              <mxPoint x="345" y="-920" />
              <mxPoint x="255" y="-920" />
            </Array>
          </mxGeometry>
        </mxCell>
        <mxCell id="6Oeuvol_LZ1ovLDAb6fE-14" style="edgeStyle=orthogonalEdgeStyle;rounded=0;orthogonalLoop=1;jettySize=auto;html=1;exitX=1;exitY=1;exitDx=0;exitDy=0;" edge="1" parent="1" source="60571a20871a0731-3" target="1c1d494c118603dd-5">
          <mxGeometry relative="1" as="geometry" />
        </mxCell>
        <mxCell id="6Oeuvol_LZ1ovLDAb6fE-21" style="edgeStyle=orthogonalEdgeStyle;rounded=0;orthogonalLoop=1;jettySize=auto;html=1;exitX=1;exitY=0.75;exitDx=0;exitDy=0;entryX=0.5;entryY=0;entryDx=0;entryDy=0;" edge="1" parent="1" source="60571a20871a0731-3" target="6Oeuvol_LZ1ovLDAb6fE-20">
          <mxGeometry relative="1" as="geometry" />
        </mxCell>
        <mxCell id="60571a20871a0731-3" value="" style="whiteSpace=wrap;html=1;rounded=0;shadow=0;comic=0;labelBackgroundColor=none;strokeWidth=1;fillColor=#000000;fontFamily=Verdana;fontSize=12;align=center;rotation=0;" parent="1" vertex="1">
          <mxGeometry x="345" y="-950" width="147" height="10" as="geometry" />
        </mxCell>
        <mxCell id="6Oeuvol_LZ1ovLDAb6fE-26" style="edgeStyle=orthogonalEdgeStyle;rounded=0;orthogonalLoop=1;jettySize=auto;html=1;exitX=0.5;exitY=1;exitDx=0;exitDy=0;entryX=0.5;entryY=0;entryDx=0;entryDy=0;" edge="1" parent="1" source="1c1d494c118603dd-11" target="6Oeuvol_LZ1ovLDAb6fE-25">
          <mxGeometry relative="1" as="geometry" />
        </mxCell>
        <mxCell id="1c1d494c118603dd-11" value="Role Authentication" style="rounded=1;whiteSpace=wrap;html=1;shadow=0;comic=0;labelBackgroundColor=none;strokeWidth=1;fontFamily=Verdana;fontSize=12;align=center;arcSize=50;" parent="1" vertex="1">
          <mxGeometry x="379" y="-660" width="100" height="30" as="geometry" />
        </mxCell>
        <mxCell id="1c1d494c118603dd-39" style="edgeStyle=none;rounded=0;html=1;labelBackgroundColor=none;startArrow=none;startFill=0;startSize=5;endArrow=classicThin;endFill=1;endSize=5;jettySize=auto;orthogonalLoop=1;strokeWidth=1;fontFamily=Verdana;fontSize=12" parent="1" source="1c1d494c118603dd-12" target="1c1d494c118603dd-11" edge="1">
          <mxGeometry relative="1" as="geometry" />
        </mxCell>
        <mxCell id="1c1d494c118603dd-12" value="" style="whiteSpace=wrap;html=1;rounded=0;shadow=0;comic=0;labelBackgroundColor=none;strokeWidth=1;fillColor=#000000;fontFamily=Verdana;fontSize=12;align=center;rotation=0;" parent="1" vertex="1">
          <mxGeometry x="355" y="-700" width="147" height="10" as="geometry" />
        </mxCell>
        <mxCell id="1c1d494c118603dd-27" style="edgeStyle=orthogonalEdgeStyle;rounded=0;html=1;labelBackgroundColor=none;startArrow=none;startFill=0;startSize=5;endArrow=classicThin;endFill=1;endSize=5;jettySize=auto;orthogonalLoop=1;strokeWidth=1;fontFamily=Verdana;fontSize=12" parent="1" source="60571a20871a0731-4" target="60571a20871a0731-8" edge="1">
          <mxGeometry relative="1" as="geometry" />
        </mxCell>
        <mxCell id="60571a20871a0731-4" value="" style="ellipse;whiteSpace=wrap;html=1;rounded=0;shadow=0;comic=0;labelBackgroundColor=none;strokeWidth=1;fillColor=#000000;fontFamily=Verdana;fontSize=12;align=center;" parent="1" vertex="1">
          <mxGeometry x="398.5" y="-1080" width="40" height="40" as="geometry" />
        </mxCell>
        <mxCell id="60571a20871a0731-8" value="Sign-in" style="rounded=1;whiteSpace=wrap;html=1;shadow=0;comic=0;labelBackgroundColor=none;strokeWidth=1;fontFamily=Verdana;fontSize=12;align=center;arcSize=50;" parent="1" vertex="1">
          <mxGeometry x="368.5" y="-1010" width="100" height="30" as="geometry" />
        </mxCell>
        <mxCell id="1c1d494c118603dd-33" style="rounded=0;html=1;labelBackgroundColor=none;startArrow=none;startFill=0;startSize=5;endArrow=classicThin;endFill=1;endSize=5;jettySize=auto;orthogonalLoop=1;strokeWidth=1;fontFamily=Verdana;fontSize=12;entryX=0.699;entryY=0.04;entryDx=0;entryDy=0;entryPerimeter=0;" parent="1" source="1c1d494c118603dd-5" target="1c1d494c118603dd-12" edge="1">
          <mxGeometry relative="1" as="geometry">
            <mxPoint x="626.25" y="-842" as="targetPoint" />
          </mxGeometry>
        </mxCell>
        <mxCell id="1c1d494c118603dd-5" value="File a complaint&amp;nbsp;" style="rounded=1;whiteSpace=wrap;html=1;shadow=0;comic=0;labelBackgroundColor=none;strokeWidth=1;fontFamily=Verdana;fontSize=12;align=center;arcSize=50;" parent="1" vertex="1">
          <mxGeometry x="492" y="-850" width="100" height="30" as="geometry" />
        </mxCell>
        <mxCell id="1c1d494c118603dd-45" style="edgeStyle=none;rounded=0;html=1;labelBackgroundColor=none;startArrow=none;startFill=0;startSize=5;endArrow=classicThin;endFill=1;endSize=5;jettySize=auto;orthogonalLoop=1;strokeWidth=1;fontFamily=Verdana;fontSize=12" parent="1" target="60571a20871a0731-5" edge="1">
          <mxGeometry relative="1" as="geometry">
            <mxPoint x="431.75" y="-290" as="sourcePoint" />
          </mxGeometry>
        </mxCell>
        <mxCell id="60571a20871a0731-5" value="" style="shape=mxgraph.bpmn.shape;html=1;verticalLabelPosition=bottom;labelBackgroundColor=#ffffff;verticalAlign=top;perimeter=ellipsePerimeter;outline=end;symbol=terminate;rounded=0;shadow=0;comic=0;strokeWidth=1;fontFamily=Verdana;fontSize=12;align=center;" parent="1" vertex="1">
          <mxGeometry x="411.75" y="-250" width="40" height="40" as="geometry" />
        </mxCell>
        <mxCell id="1c1d494c118603dd-28" style="edgeStyle=orthogonalEdgeStyle;rounded=0;html=1;entryX=0.5;entryY=0;labelBackgroundColor=none;startArrow=none;startFill=0;startSize=5;endArrow=classicThin;endFill=1;endSize=5;jettySize=auto;orthogonalLoop=1;strokeWidth=1;fontFamily=Verdana;fontSize=12" parent="1" source="60571a20871a0731-8" target="60571a20871a0731-3" edge="1">
          <mxGeometry relative="1" as="geometry">
            <Array as="points">
              <mxPoint x="419" y="-985" />
            </Array>
          </mxGeometry>
        </mxCell>
        <mxCell id="1c1d494c118603dd-30" style="edgeStyle=orthogonalEdgeStyle;rounded=0;html=1;exitX=0;exitY=0.25;entryX=0.5;entryY=0;labelBackgroundColor=none;startArrow=none;startFill=0;startSize=5;endArrow=classicThin;endFill=1;endSize=5;jettySize=auto;orthogonalLoop=1;strokeWidth=1;fontFamily=Verdana;fontSize=12;exitDx=0;exitDy=0;" parent="1" source="60571a20871a0731-3" target="1c1d494c118603dd-6" edge="1">
          <mxGeometry relative="1" as="geometry">
            <Array as="points">
              <mxPoint x="315" y="-947" />
              <mxPoint x="315" y="-945" />
              <mxPoint x="135" y="-945" />
            </Array>
            <mxPoint x="311.75" y="-940" as="sourcePoint" />
          </mxGeometry>
        </mxCell>
        <mxCell id="1c1d494c118603dd-36" style="edgeStyle=none;rounded=0;html=1;labelBackgroundColor=none;startArrow=none;startFill=0;startSize=5;endArrow=classicThin;endFill=1;endSize=5;jettySize=auto;orthogonalLoop=1;strokeWidth=1;fontFamily=Verdana;fontSize=12" parent="1" source="1c1d494c118603dd-7" edge="1">
          <mxGeometry relative="1" as="geometry">
            <mxPoint x="275" y="-820" as="targetPoint" />
          </mxGeometry>
        </mxCell>
        <mxCell id="6Oeuvol_LZ1ovLDAb6fE-1" value="Token" style="text;html=1;align=center;verticalAlign=middle;whiteSpace=wrap;rounded=0;" vertex="1" parent="1">
          <mxGeometry x="355" y="-1040" width="60" height="30" as="geometry" />
        </mxCell>
        <mxCell id="6Oeuvol_LZ1ovLDAb6fE-3" value="Specialties" style="rounded=1;whiteSpace=wrap;html=1;shadow=0;comic=0;labelBackgroundColor=none;strokeWidth=1;fontFamily=Verdana;fontSize=12;align=center;arcSize=50;" vertex="1" parent="1">
          <mxGeometry x="245" y="-820" width="100" height="30" as="geometry" />
        </mxCell>
        <mxCell id="6Oeuvol_LZ1ovLDAb6fE-5" style="edgeStyle=none;rounded=0;html=1;labelBackgroundColor=none;startArrow=none;startFill=0;startSize=5;endArrow=classicThin;endFill=1;endSize=5;jettySize=auto;orthogonalLoop=1;strokeWidth=1;fontFamily=Verdana;fontSize=12;exitX=0.75;exitY=1;exitDx=0;exitDy=0;entryX=0.15;entryY=-0.28;entryDx=0;entryDy=0;entryPerimeter=0;" edge="1" parent="1" source="6Oeuvol_LZ1ovLDAb6fE-3" target="1c1d494c118603dd-12">
          <mxGeometry relative="1" as="geometry">
            <mxPoint x="280" y="-840" as="sourcePoint" />
            <mxPoint x="295" y="-800" as="targetPoint" />
          </mxGeometry>
        </mxCell>
        <mxCell id="6Oeuvol_LZ1ovLDAb6fE-6" style="edgeStyle=none;rounded=0;html=1;labelBackgroundColor=none;startArrow=none;startFill=0;startSize=5;endArrow=oval;endFill=0;endSize=5;jettySize=auto;orthogonalLoop=1;strokeWidth=1;fontFamily=Verdana;fontSize=12;dashed=1;entryX=1;entryY=0;entryDx=0;entryDy=0;" edge="1" parent="1" source="6Oeuvol_LZ1ovLDAb6fE-7">
          <mxGeometry relative="1" as="geometry">
            <mxPoint x="345" y="-800" as="targetPoint" />
          </mxGeometry>
        </mxCell>
        <mxCell id="6Oeuvol_LZ1ovLDAb6fE-7" value="Specialties" style="shape=note;whiteSpace=wrap;html=1;rounded=0;shadow=0;comic=0;labelBackgroundColor=none;strokeWidth=1;fontFamily=Verdana;fontSize=12;align=center;size=20;" vertex="1" parent="1">
          <mxGeometry x="359" y="-792" width="85" height="42" as="geometry" />
        </mxCell>
        <mxCell id="6Oeuvol_LZ1ovLDAb6fE-9" style="edgeStyle=none;rounded=0;html=1;labelBackgroundColor=none;startArrow=none;startFill=0;startSize=5;endArrow=oval;endFill=0;endSize=5;jettySize=auto;orthogonalLoop=1;strokeWidth=1;fontFamily=Verdana;fontSize=12;dashed=1;entryX=1;entryY=0;entryDx=0;entryDy=0;" edge="1" parent="1" source="6Oeuvol_LZ1ovLDAb6fE-10">
          <mxGeometry relative="1" as="geometry">
            <mxPoint x="305" y="-872" as="targetPoint" />
          </mxGeometry>
        </mxCell>
        <mxCell id="6Oeuvol_LZ1ovLDAb6fE-10" value="Faculties" style="shape=note;whiteSpace=wrap;html=1;rounded=0;shadow=0;comic=0;labelBackgroundColor=none;strokeWidth=1;fontFamily=Verdana;fontSize=12;align=center;size=13;" vertex="1" parent="1">
          <mxGeometry x="330" y="-878" width="85" height="42" as="geometry" />
        </mxCell>
        <mxCell id="6Oeuvol_LZ1ovLDAb6fE-11" style="edgeStyle=orthogonalEdgeStyle;rounded=0;orthogonalLoop=1;jettySize=auto;html=1;exitX=0.5;exitY=1;exitDx=0;exitDy=0;exitPerimeter=0;" edge="1" parent="1">
          <mxGeometry relative="1" as="geometry">
            <mxPoint x="675" y="-339" as="sourcePoint" />
            <mxPoint x="675" y="-339" as="targetPoint" />
          </mxGeometry>
        </mxCell>
        <mxCell id="6Oeuvol_LZ1ovLDAb6fE-20" value="Apply for a role" style="rounded=1;whiteSpace=wrap;html=1;shadow=0;comic=0;labelBackgroundColor=none;strokeWidth=1;fontFamily=Verdana;fontSize=12;align=center;arcSize=50;" vertex="1" parent="1">
          <mxGeometry x="635" y="-890" width="100" height="30" as="geometry" />
        </mxCell>
        <mxCell id="6Oeuvol_LZ1ovLDAb6fE-23" style="rounded=0;html=1;labelBackgroundColor=none;startArrow=none;startFill=0;startSize=5;endArrow=classicThin;endFill=1;endSize=5;jettySize=auto;orthogonalLoop=1;strokeWidth=1;fontFamily=Verdana;fontSize=12;entryX=0.841;entryY=-0.12;entryDx=0;entryDy=0;entryPerimeter=0;exitX=0.5;exitY=1;exitDx=0;exitDy=0;" edge="1" parent="1" source="6Oeuvol_LZ1ovLDAb6fE-20" target="1c1d494c118603dd-12">
          <mxGeometry relative="1" as="geometry">
            <mxPoint x="523" y="-850" as="sourcePoint" />
            <mxPoint x="468" y="-690" as="targetPoint" />
          </mxGeometry>
        </mxCell>
        <mxCell id="6Oeuvol_LZ1ovLDAb6fE-31" style="edgeStyle=orthogonalEdgeStyle;rounded=0;orthogonalLoop=1;jettySize=auto;html=1;entryX=0.5;entryY=0;entryDx=0;entryDy=0;" edge="1" parent="1" source="6Oeuvol_LZ1ovLDAb6fE-25" target="6Oeuvol_LZ1ovLDAb6fE-29">
          <mxGeometry relative="1" as="geometry" />
        </mxCell>
        <mxCell id="6Oeuvol_LZ1ovLDAb6fE-32" style="edgeStyle=orthogonalEdgeStyle;rounded=0;orthogonalLoop=1;jettySize=auto;html=1;entryX=0.5;entryY=0;entryDx=0;entryDy=0;" edge="1" parent="1" source="6Oeuvol_LZ1ovLDAb6fE-25" target="6Oeuvol_LZ1ovLDAb6fE-30">
          <mxGeometry relative="1" as="geometry" />
        </mxCell>
        <mxCell id="6Oeuvol_LZ1ovLDAb6fE-25" value="" style="rhombus;whiteSpace=wrap;html=1;" vertex="1" parent="1">
          <mxGeometry x="395" y="-610" width="73.5" height="60" as="geometry" />
        </mxCell>
        <mxCell id="6Oeuvol_LZ1ovLDAb6fE-43" style="edgeStyle=orthogonalEdgeStyle;rounded=0;orthogonalLoop=1;jettySize=auto;html=1;entryX=0.5;entryY=0;entryDx=0;entryDy=0;" edge="1" parent="1" source="6Oeuvol_LZ1ovLDAb6fE-29" target="6Oeuvol_LZ1ovLDAb6fE-42">
          <mxGeometry relative="1" as="geometry" />
        </mxCell>
        <mxCell id="6Oeuvol_LZ1ovLDAb6fE-59" style="edgeStyle=orthogonalEdgeStyle;rounded=0;orthogonalLoop=1;jettySize=auto;html=1;" edge="1" parent="1" source="6Oeuvol_LZ1ovLDAb6fE-29" target="6Oeuvol_LZ1ovLDAb6fE-57">
          <mxGeometry relative="1" as="geometry" />
        </mxCell>
        <mxCell id="6Oeuvol_LZ1ovLDAb6fE-60" style="edgeStyle=orthogonalEdgeStyle;rounded=0;orthogonalLoop=1;jettySize=auto;html=1;entryX=0.5;entryY=0;entryDx=0;entryDy=0;" edge="1" parent="1" source="6Oeuvol_LZ1ovLDAb6fE-29" target="6Oeuvol_LZ1ovLDAb6fE-58">
          <mxGeometry relative="1" as="geometry" />
        </mxCell>
        <mxCell id="6Oeuvol_LZ1ovLDAb6fE-29" value="Teacher" style="rounded=0;whiteSpace=wrap;html=1;" vertex="1" parent="1">
          <mxGeometry x="492" y="-550" width="90" height="50" as="geometry" />
        </mxCell>
        <mxCell id="6Oeuvol_LZ1ovLDAb6fE-45" style="edgeStyle=orthogonalEdgeStyle;rounded=0;orthogonalLoop=1;jettySize=auto;html=1;entryX=0.5;entryY=0;entryDx=0;entryDy=0;" edge="1" parent="1" source="6Oeuvol_LZ1ovLDAb6fE-30" target="6Oeuvol_LZ1ovLDAb6fE-42">
          <mxGeometry relative="1" as="geometry" />
        </mxCell>
        <mxCell id="6Oeuvol_LZ1ovLDAb6fE-53" style="edgeStyle=orthogonalEdgeStyle;rounded=0;orthogonalLoop=1;jettySize=auto;html=1;entryX=0.5;entryY=0;entryDx=0;entryDy=0;" edge="1" parent="1" source="6Oeuvol_LZ1ovLDAb6fE-30" target="6Oeuvol_LZ1ovLDAb6fE-52">
          <mxGeometry relative="1" as="geometry" />
        </mxCell>
        <mxCell id="6Oeuvol_LZ1ovLDAb6fE-30" value="Student" style="rounded=0;whiteSpace=wrap;html=1;" vertex="1" parent="1">
          <mxGeometry x="278.5" y="-550" width="90" height="50" as="geometry" />
        </mxCell>
        <mxCell id="6Oeuvol_LZ1ovLDAb6fE-33" value="" style="whiteSpace=wrap;html=1;rounded=0;shadow=0;comic=0;labelBackgroundColor=none;strokeWidth=1;fillColor=#000000;fontFamily=Verdana;fontSize=12;align=center;rotation=0;" vertex="1" parent="1">
          <mxGeometry x="355.5" y="-310" width="147" height="10" as="geometry" />
        </mxCell>
        <mxCell id="6Oeuvol_LZ1ovLDAb6fE-50" style="edgeStyle=orthogonalEdgeStyle;rounded=0;orthogonalLoop=1;jettySize=auto;html=1;entryX=0.5;entryY=0;entryDx=0;entryDy=0;" edge="1" parent="1" source="6Oeuvol_LZ1ovLDAb6fE-34" target="6Oeuvol_LZ1ovLDAb6fE-33">
          <mxGeometry relative="1" as="geometry" />
        </mxCell>
        <mxCell id="6Oeuvol_LZ1ovLDAb6fE-34" value="View user profile" style="rounded=1;whiteSpace=wrap;html=1;shadow=0;comic=0;labelBackgroundColor=none;strokeWidth=1;fontFamily=Verdana;fontSize=12;align=center;arcSize=50;" vertex="1" parent="1">
          <mxGeometry x="305" y="-400" width="100" height="30" as="geometry" />
        </mxCell>
        <mxCell id="6Oeuvol_LZ1ovLDAb6fE-51" style="edgeStyle=orthogonalEdgeStyle;rounded=0;orthogonalLoop=1;jettySize=auto;html=1;entryX=0.5;entryY=0;entryDx=0;entryDy=0;" edge="1" parent="1" source="6Oeuvol_LZ1ovLDAb6fE-35" target="6Oeuvol_LZ1ovLDAb6fE-33">
          <mxGeometry relative="1" as="geometry" />
        </mxCell>
        <mxCell id="6Oeuvol_LZ1ovLDAb6fE-35" value="Open Schedule" style="rounded=1;whiteSpace=wrap;html=1;shadow=0;comic=0;labelBackgroundColor=none;strokeWidth=1;fontFamily=Verdana;fontSize=12;align=center;arcSize=50;" vertex="1" parent="1">
          <mxGeometry x="451.75" y="-400" width="100" height="30" as="geometry" />
        </mxCell>
        <mxCell id="6Oeuvol_LZ1ovLDAb6fE-46" style="edgeStyle=orthogonalEdgeStyle;rounded=0;orthogonalLoop=1;jettySize=auto;html=1;entryX=0.5;entryY=0;entryDx=0;entryDy=0;" edge="1" parent="1" source="6Oeuvol_LZ1ovLDAb6fE-42" target="6Oeuvol_LZ1ovLDAb6fE-34">
          <mxGeometry relative="1" as="geometry" />
        </mxCell>
        <mxCell id="6Oeuvol_LZ1ovLDAb6fE-48" style="edgeStyle=orthogonalEdgeStyle;rounded=0;orthogonalLoop=1;jettySize=auto;html=1;entryX=0.5;entryY=0;entryDx=0;entryDy=0;" edge="1" parent="1" source="6Oeuvol_LZ1ovLDAb6fE-42" target="6Oeuvol_LZ1ovLDAb6fE-35">
          <mxGeometry relative="1" as="geometry">
            <Array as="points">
              <mxPoint x="429" y="-420" />
              <mxPoint x="502" y="-420" />
            </Array>
          </mxGeometry>
        </mxCell>
        <mxCell id="6Oeuvol_LZ1ovLDAb6fE-42" value="" style="rhombus;whiteSpace=wrap;html=1;" vertex="1" parent="1">
          <mxGeometry x="391.75" y="-500" width="73.5" height="60" as="geometry" />
        </mxCell>
        <mxCell id="6Oeuvol_LZ1ovLDAb6fE-55" style="edgeStyle=orthogonalEdgeStyle;rounded=0;orthogonalLoop=1;jettySize=auto;html=1;exitX=0.5;exitY=1;exitDx=0;exitDy=0;entryX=0;entryY=0.5;entryDx=0;entryDy=0;" edge="1" parent="1" source="6Oeuvol_LZ1ovLDAb6fE-52" target="6Oeuvol_LZ1ovLDAb6fE-33">
          <mxGeometry relative="1" as="geometry" />
        </mxCell>
        <mxCell id="6Oeuvol_LZ1ovLDAb6fE-52" value="Get own subject" style="rounded=1;whiteSpace=wrap;html=1;shadow=0;comic=0;labelBackgroundColor=none;strokeWidth=1;fontFamily=Verdana;fontSize=12;align=center;arcSize=50;" vertex="1" parent="1">
          <mxGeometry x="145" y="-440" width="100" height="30" as="geometry" />
        </mxCell>
        <mxCell id="6Oeuvol_LZ1ovLDAb6fE-62" style="edgeStyle=orthogonalEdgeStyle;rounded=0;orthogonalLoop=1;jettySize=auto;html=1;" edge="1" parent="1" source="6Oeuvol_LZ1ovLDAb6fE-57">
          <mxGeometry relative="1" as="geometry">
            <mxPoint x="615" y="-310" as="targetPoint" />
          </mxGeometry>
        </mxCell>
        <mxCell id="6Oeuvol_LZ1ovLDAb6fE-57" value="Make an attendance" style="rounded=1;whiteSpace=wrap;html=1;shadow=0;comic=0;labelBackgroundColor=none;strokeWidth=1;fontFamily=Verdana;fontSize=12;align=center;arcSize=50;" vertex="1" parent="1">
          <mxGeometry x="565" y="-440" width="100" height="30" as="geometry" />
        </mxCell>
        <mxCell id="6Oeuvol_LZ1ovLDAb6fE-61" style="edgeStyle=orthogonalEdgeStyle;rounded=0;orthogonalLoop=1;jettySize=auto;html=1;exitX=0.5;exitY=1;exitDx=0;exitDy=0;entryX=1;entryY=0.5;entryDx=0;entryDy=0;" edge="1" parent="1" source="6Oeuvol_LZ1ovLDAb6fE-58" target="6Oeuvol_LZ1ovLDAb6fE-33">
          <mxGeometry relative="1" as="geometry" />
        </mxCell>
        <mxCell id="6Oeuvol_LZ1ovLDAb6fE-58" value="Make a grade" style="rounded=1;whiteSpace=wrap;html=1;shadow=0;comic=0;labelBackgroundColor=none;strokeWidth=1;fontFamily=Verdana;fontSize=12;align=center;arcSize=50;" vertex="1" parent="1">
          <mxGeometry x="715" y="-440" width="100" height="30" as="geometry" />
        </mxCell>
        <mxCell id="6Oeuvol_LZ1ovLDAb6fE-63" value="Complaint" style="text;html=1;align=center;verticalAlign=middle;whiteSpace=wrap;rounded=0;" vertex="1" parent="1">
          <mxGeometry x="507" y="-930" width="60" height="30" as="geometry" />
        </mxCell>
        <mxCell id="6Oeuvol_LZ1ovLDAb6fE-64" value="Student" style="text;html=1;align=center;verticalAlign=middle;whiteSpace=wrap;rounded=0;" vertex="1" parent="1">
          <mxGeometry x="75" y="-410" width="60" height="30" as="geometry" />
        </mxCell>
        <mxCell id="6Oeuvol_LZ1ovLDAb6fE-66" style="edgeStyle=none;rounded=0;html=1;labelBackgroundColor=none;startArrow=none;startFill=0;startSize=5;endArrow=oval;endFill=0;endSize=5;jettySize=auto;orthogonalLoop=1;strokeWidth=1;fontFamily=Verdana;fontSize=12;dashed=1;" edge="1" parent="1" source="6Oeuvol_LZ1ovLDAb6fE-67" target="6Oeuvol_LZ1ovLDAb6fE-57">
          <mxGeometry relative="1" as="geometry">
            <mxPoint x="726.5" y="-390" as="targetPoint" />
          </mxGeometry>
        </mxCell>
        <mxCell id="6Oeuvol_LZ1ovLDAb6fE-67" value="Journal" style="shape=note;whiteSpace=wrap;html=1;rounded=0;shadow=0;comic=0;labelBackgroundColor=none;strokeWidth=1;fontFamily=Verdana;fontSize=12;align=center;size=20;" vertex="1" parent="1">
          <mxGeometry x="642.5" y="-371" width="85" height="42" as="geometry" />
        </mxCell>
        <mxCell id="6Oeuvol_LZ1ovLDAb6fE-68" style="edgeStyle=orthogonalEdgeStyle;rounded=0;orthogonalLoop=1;jettySize=auto;html=1;exitX=0.5;exitY=1;exitDx=0;exitDy=0;exitPerimeter=0;" edge="1" parent="1" source="6Oeuvol_LZ1ovLDAb6fE-67" target="6Oeuvol_LZ1ovLDAb6fE-67">
          <mxGeometry relative="1" as="geometry" />
        </mxCell>
        <mxCell id="6Oeuvol_LZ1ovLDAb6fE-69" style="edgeStyle=none;rounded=0;html=1;labelBackgroundColor=none;startArrow=none;startFill=0;startSize=5;endArrow=oval;endFill=0;endSize=5;jettySize=auto;orthogonalLoop=1;strokeWidth=1;fontFamily=Verdana;fontSize=12;dashed=1;entryX=0;entryY=0.75;entryDx=0;entryDy=0;exitX=0;exitY=0;exitDx=32.5;exitDy=0;exitPerimeter=0;" edge="1" parent="1" source="6Oeuvol_LZ1ovLDAb6fE-67" target="6Oeuvol_LZ1ovLDAb6fE-58">
          <mxGeometry relative="1" as="geometry">
            <mxPoint x="639" y="-400" as="targetPoint" />
            <mxPoint x="675" y="-361" as="sourcePoint" />
          </mxGeometry>
        </mxCell>
        <mxCell id="6Oeuvol_LZ1ovLDAb6fE-70" value="Subjects" style="shape=note;whiteSpace=wrap;html=1;rounded=0;shadow=0;comic=0;labelBackgroundColor=none;strokeWidth=1;fontFamily=Verdana;fontSize=12;align=center;size=20;" vertex="1" parent="1">
          <mxGeometry x="60" y="-371" width="85" height="41" as="geometry" />
        </mxCell>
        <mxCell id="6Oeuvol_LZ1ovLDAb6fE-71" style="edgeStyle=none;rounded=0;html=1;labelBackgroundColor=none;startArrow=none;startFill=0;startSize=5;endArrow=oval;endFill=0;endSize=5;jettySize=auto;orthogonalLoop=1;strokeWidth=1;fontFamily=Verdana;fontSize=12;dashed=1;" edge="1" parent="1" source="6Oeuvol_LZ1ovLDAb6fE-70" target="6Oeuvol_LZ1ovLDAb6fE-52">
          <mxGeometry relative="1" as="geometry">
            <mxPoint x="109" y="-831" as="sourcePoint" />
            <mxPoint x="129" y="-850" as="targetPoint" />
          </mxGeometry>
        </mxCell>
        <mxCell id="6Oeuvol_LZ1ovLDAb6fE-73" value="Person" style="text;html=1;align=center;verticalAlign=middle;whiteSpace=wrap;rounded=0;" vertex="1" parent="1">
          <mxGeometry x="522" y="-980" width="60" height="30" as="geometry" />
        </mxCell>
      </root>
    </mxGraphModel>
  </diagram>
</mxfile>
